<svg width="882" height="1100" viewBox="0 0 882 1100" fill="none" xmlns="http://www.w3.org/2000/svg">
<path d="M172.917 1100H709.084C715.714 1100 721.46 1095.43 722.962 1088.98L880.731 409.987C881.712 405.754 880.71 401.305 878.011 397.9C875.305 394.498 871.2 392.516 866.853 392.516H859.524C852.284 272.424 754.291 176.972 634.822 176.972C633.354 176.972 631.9 177 630.46 177.045C608.101 73.709 517.658 0 410.694 0C302.206 0 208.764 78.683 189.418 184.583C96.31 209.402 28.51 294.185 22.485 392.516H15.148C10.8 392.516 6.69604 394.499 3.99004 397.9C1.29104 401.305 0.289039 405.754 1.27004 409.987L159.039 1088.98C160.541 1095.43 166.287 1100 172.917 1100ZM640.251 421.011L567.273 1071.51H455.244V421.011H640.251ZM426.749 1071.51H307.506L234.528 421.011H426.75L426.749 1071.51ZM697.765 1071.51H595.945L668.923 421.011H848.918L697.765 1071.51ZM205.021 210.114C205.155 210.085 205.261 210.002 205.393 209.97C219.044 207.016 233.079 205.467 247.178 205.467C283.039 205.467 318.122 215.203 348.647 233.627C350.95 235.015 353.489 235.679 355.993 235.679C360.821 235.679 365.53 233.223 368.202 228.792C372.272 222.055 370.108 213.296 363.367 209.23C328.403 188.127 288.229 176.972 247.178 176.972C238.016 176.972 228.882 177.569 219.826 178.665C240.957 91.808 319.756 28.493 410.693 28.493C507.905 28.493 589.499 98.205 604.699 194.255C605.861 201.584 612.769 206.798 620.233 206.206C625.29 205.823 630.07 205.465 634.821 205.465C736.76 205.465 823.507 289.748 830.93 392.514H51.105C57.266 304.176 120.027 228.686 205.021 210.114ZM205.856 421.011L278.834 1071.51H184.235L33.082 421.011H205.856Z" fill="black"/>
</svg>
